<svg xmlns="http://www.w3.org/2000/svg" width="86" height="62" viewBox="0 0 86 62">
  <defs>
    <style>
      .cls-1 {
        fill: #fff;
        fill-rule: evenodd;
      }
    </style>
  </defs>
  <path id="quote" class="cls-1" d="M5.1,30.3a17.141,17.141,0,0,0,11.7,4.515,12.462,12.462,0,0,0,4.9-1.3A12.007,12.007,0,0,1,26,32.2a1.6,1.6,0,0,1,1.5,1,6.983,6.983,0,0,1,.5,3.01q0,8.747-8,15.511A26.652,26.652,0,0,1,2.4,58.491L2.8,61.5A36.874,36.874,0,0,0,29.4,50.866a34.2,34.2,0,0,0,11-25.485A26.025,26.025,0,0,0,34.1,7.822,20.279,20.279,0,0,0,18,.5,17.194,17.194,0,0,0,5,5.715,18.114,18.114,0,0,0,0,18.759,14.725,14.725,0,0,0,5.1,30.3Zm45.6,0a17.142,17.142,0,0,0,11.7,4.515,12.462,12.462,0,0,0,4.9-1.3,12.008,12.008,0,0,1,4.3-1.3,1.6,1.6,0,0,1,1.5,1,6.983,6.983,0,0,1,.5,3.01q0,8.747-8,15.511A26.653,26.653,0,0,1,48,58.491l0.4,3.01A36.874,36.874,0,0,0,75,50.866,34.2,34.2,0,0,0,86,25.381,26.025,26.025,0,0,0,79.7,7.822,20.279,20.279,0,0,0,63.6.5a17.194,17.194,0,0,0-13,5.217,18.114,18.114,0,0,0-5,13.044A14.725,14.725,0,0,0,50.7,30.3Z"/>
</svg>
